HIERARCHY
ROOT Hips
{
	OFFSET 0.000000 87.230942 0.000000
	CHANNELS 6 Xposition Yposition Zposition Xrotation Yrotation Zrotation
	JOINT Pelvis
	{
		OFFSET 0.000000 0.000000 0.000000
		CHANNELS 3 Xrotation Yrotation Zrotation
		JOINT LeftUpLeg
		{
			OFFSET 12.017000 -9.376404 -2.439400
			CHANNELS 3 Xrotation Yrotation Zrotation
			JOINT LeftLeg
			{
				OFFSET -0.007312 -32.846973 2.110600
				CHANNELS 3 Xrotation Yrotation Zrotation
				JOINT LeftFoot
				{
					OFFSET 0.007312 -32.065170 -0.570400
					CHANNELS 3 Xrotation Yrotation Zrotation
					JOINT LeftToeBase
					{
						OFFSET 0.728300 -11.045900 13.180700
						CHANNELS 3 Xrotation Yrotation Zrotation
						End Site
						{
							OFFSET 0.000000 17.212589 0.000000
						}
					}
				}
				JOINT LeftPantLeg
				{
					OFFSET 0.002788 -16.709013 -3.143600
					CHANNELS 3 Xrotation Yrotation Zrotation
					End Site
					{
						OFFSET -0.605125 24.528742 0.000000
					}
				}
			}
			JOINT Left_Butt
			{
				OFFSET -6.630234 1.326584 -3.183700
				CHANNELS 3 Xrotation Yrotation Zrotation
				End Site
				{
					OFFSET -0.498041 20.188049 0.000000
				}
			}
		}
		JOINT RightUpLeg
		{
			OFFSET -11.717000 -9.376404 -2.439400
			CHANNELS 3 Xrotation Yrotation Zrotation
			JOINT RightLeg
			{
				OFFSET -0.003241 -32.846912 2.110600
				CHANNELS 3 Xrotation Yrotation Zrotation
				JOINT RightFoot
				{
					OFFSET 0.003241 -32.065136 -0.570500
					CHANNELS 3 Xrotation Yrotation Zrotation
					JOINT RightToeBase
					{
						OFFSET -0.728300 -11.045901 13.180700
						CHANNELS 3 Xrotation Yrotation Zrotation
						End Site
						{
							OFFSET 0.000000 17.212593 0.000000
						}
					}
				}
				JOINT RightPantLeg
				{
					OFFSET 0.008142 -16.708982 -3.143700
					CHANNELS 3 Xrotation Yrotation Zrotation
					End Site
					{
						OFFSET 0.605088 24.528715 0.000000
					}
				}
			}
			JOINT Right_Butt
			{
				OFFSET 6.630732 1.326584 -3.183700
				CHANNELS 3 Xrotation Yrotation Zrotation
				End Site
				{
					OFFSET 0.498015 20.188240 0.000000
				}
			}
		}
	}
	JOINT Spine
	{
		OFFSET -0.062400 7.848404 3.918300
		CHANNELS 3 Xrotation Yrotation Zrotation
		JOINT Spine1
		{
			OFFSET -0.072800 11.422302 0.713400
			CHANNELS 3 Xrotation Yrotation Zrotation
			JOINT Spine2
			{
				OFFSET -0.083200 13.054001 -1.931600
				CHANNELS 3 Xrotation Yrotation Zrotation
				JOINT Neck
				{
					OFFSET -0.092200 14.121796 -5.138800
					CHANNELS 3 Xrotation Yrotation Zrotation
					JOINT Head
					{
						OFFSET 0.000200 10.447403 -0.842000
						CHANNELS 3 Xrotation Yrotation Zrotation
						JOINT Visor
						{
							OFFSET 0.457100 25.671204 16.550400
							CHANNELS 3 Xrotation Yrotation Zrotation
							End Site
							{
								OFFSET 0.000000 26.061493 0.000000
							}
						}
						JOINT HairMidA
						{
							OFFSET 0.459400 31.585403 8.437400
							CHANNELS 3 Xrotation Yrotation Zrotation
							End Site
							{
								OFFSET 0.000000 26.061493 0.000000
							}
						}
						JOINT HairMidB
						{
							OFFSET 0.464000 33.309204 -8.389700
							CHANNELS 3 Xrotation Yrotation Zrotation
							End Site
							{
								OFFSET 0.000000 26.061493 0.000000
							}
						}
						JOINT HairMidC
						{
							OFFSET 0.466600 27.991196 -17.375099
							CHANNELS 3 Xrotation Yrotation Zrotation
							End Site
							{
								OFFSET 0.000000 26.061493 0.000000
							}
						}
						JOINT HairMidD
						{
							OFFSET 0.467700 17.888092 -21.169500
							CHANNELS 3 Xrotation Yrotation Zrotation
							End Site
							{
								OFFSET 0.000000 26.061493 0.000000
							}
						}
						JOINT HairMidE
						{
							OFFSET 5.325700 3.514603 -14.369699
							CHANNELS 3 Xrotation Yrotation Zrotation
							End Site
							{
								OFFSET 0.000000 26.061493 0.000000
							}
						}
						JOINT HairMidF
						{
							OFFSET -4.394100 3.514603 -14.372400
							CHANNELS 3 Xrotation Yrotation Zrotation
							End Site
							{
								OFFSET 0.000000 26.061493 0.000000
							}
						}
						JOINT HairLeftA
						{
							OFFSET 15.319900 25.746506 2.623300
							CHANNELS 3 Xrotation Yrotation Zrotation
							End Site
							{
								OFFSET 0.000000 26.061493 0.000000
							}
						}
						JOINT HairLeftB
						{
							OFFSET 12.619500 29.289398 -8.731499
							CHANNELS 3 Xrotation Yrotation Zrotation
							End Site
							{
								OFFSET 0.000000 26.061493 0.000000
							}
						}
						JOINT HairLeftC
						{
							OFFSET 15.714800 15.959900 2.909800
							CHANNELS 3 Xrotation Yrotation Zrotation
							End Site
							{
								OFFSET 0.000000 26.061493 0.000000
							}
						}
						JOINT HairLeftD
						{
							OFFSET 16.101700 18.437408 -7.553200
							CHANNELS 3 Xrotation Yrotation Zrotation
							End Site
							{
								OFFSET 0.000000 26.061493 0.000000
							}
						}
						JOINT HairLeftE
						{
							OFFSET 9.731900 17.915009 -18.316799
							CHANNELS 3 Xrotation Yrotation Zrotation
							End Site
							{
								OFFSET 0.000000 26.061493 0.000000
							}
						}
						JOINT HairLeftF
						{
							OFFSET 11.204300 4.953598 -9.668100
							CHANNELS 3 Xrotation Yrotation Zrotation
							End Site
							{
								OFFSET 0.000000 26.061493 0.000000
							}
						}
						JOINT HairRightA
						{
							OFFSET -14.397900 25.746307 2.615100
							CHANNELS 3 Xrotation Yrotation Zrotation
							End Site
							{
								OFFSET 0.000000 26.061493 0.000000
							}
						}
						JOINT HairRightB
						{
							OFFSET -11.691200 29.289200 -8.738199
							CHANNELS 3 Xrotation Yrotation Zrotation
							End Site
							{
								OFFSET 0.000000 26.061493 0.000000
							}
						}
						JOINT HairRightC
						{
							OFFSET -14.792900 15.959702 2.901400
							CHANNELS 3 Xrotation Yrotation Zrotation
							End Site
							{
								OFFSET 0.000000 26.061493 0.000000
							}
						}
						JOINT HairRightD
						{
							OFFSET -15.174000 18.437195 -7.561900
							CHANNELS 3 Xrotation Yrotation Zrotation
							End Site
							{
								OFFSET 0.000000 26.061493 0.000000
							}
						}
						JOINT HairRightE
						{
							OFFSET -8.798200 17.914902 -18.322001
							CHANNELS 3 Xrotation Yrotation Zrotation
							End Site
							{
								OFFSET 0.000000 26.061493 0.000000
							}
						}
						JOINT HairRightF
						{
							OFFSET -10.275200 4.953506 -9.674099
							CHANNELS 3 Xrotation Yrotation Zrotation
							End Site
							{
								OFFSET 0.000000 26.061493 0.000000
							}
						}
					}
				}
				JOINT LeftShoulder
				{
					OFFSET 5.133500 7.341202 -1.867600
					CHANNELS 3 Xrotation Yrotation Zrotation
					JOINT LeftArm
					{
						OFFSET 8.072663 0.936867 -2.176600
						CHANNELS 3 Xrotation Yrotation Zrotation
						JOINT LeftForeArm
						{
							OFFSET 31.271999 0.000000 0.000000
							CHANNELS 3 Xrotation Yrotation Zrotation
							JOINT LeftHand
							{
								OFFSET 31.771030 0.000000 0.000000
								CHANNELS 3 Xrotation Yrotation Zrotation
								JOINT LeftHandThumb1
								{
									OFFSET 2.886520 -2.557846 4.416640
									CHANNELS 3 Xrotation Yrotation Zrotation
									JOINT LeftHandThumb2
									{
										OFFSET 2.371025 -1.368912 1.368911
										CHANNELS 3 Xrotation Yrotation Zrotation
										JOINT LeftHandThumb3
										{
											OFFSET 2.243378 -1.295212 1.295213
											CHANNELS 3 Xrotation Yrotation Zrotation
											End Site
											{
												OFFSET -0.332611 2.876945 0.020015
											}
										}
									}
								}
								JOINT LeftHandIndex1
								{
									OFFSET 8.568985 -0.641945 3.119977
									CHANNELS 3 Xrotation Yrotation Zrotation
									JOINT LeftHandIndex2
									{
										OFFSET 3.348503 0.000000 0.000000
										CHANNELS 3 Xrotation Yrotation Zrotation
										JOINT LeftHandIndex3
										{
											OFFSET 3.314552 0.000000 0.000000
											CHANNELS 3 Xrotation Yrotation Zrotation
											End Site
											{
												OFFSET -1.032898 3.075485 0.678796
											}
										}
									}
								}
								JOINT LeftHandMiddle1
								{
									OFFSET 8.124603 0.000000 0.000000
									CHANNELS 3 Xrotation Yrotation Zrotation
									JOINT LeftHandMiddle2
									{
										OFFSET 4.166275 0.000000 0.000000
										CHANNELS 3 Xrotation Yrotation Zrotation
										JOINT LeftHandMiddle3
										{
											OFFSET 3.018135 0.000000 0.000000
											CHANNELS 3 Xrotation Yrotation Zrotation
											End Site
											{
												OFFSET -1.032700 2.767982 0.617226
											}
										}
									}
								}
								JOINT LeftHandRing1
								{
									OFFSET 8.571686 -0.031357 -2.884048
									CHANNELS 3 Xrotation Yrotation Zrotation
									JOINT LeftHandRing2
									{
										OFFSET 3.671181 0.000000 0.000000
										CHANNELS 3 Xrotation Yrotation Zrotation
										JOINT LeftHandRing3
										{
											OFFSET 2.728851 0.000000 0.000000
											CHANNELS 3 Xrotation Yrotation Zrotation
											End Site
											{
												OFFSET -0.815796 2.539223 0.577389
											}
										}
									}
								}
								JOINT LeftHandPinky1
								{
									OFFSET 7.854515 -0.675232 -5.213020
									CHANNELS 3 Xrotation Yrotation Zrotation
									JOINT LeftHandPinky2
									{
										OFFSET 3.068596 0.000000 0.000000
										CHANNELS 3 Xrotation Yrotation Zrotation
										JOINT LeftHandPinky3
										{
											OFFSET 2.396042 0.000000 0.000000
											CHANNELS 3 Xrotation Yrotation Zrotation
											End Site
											{
												OFFSET -0.524597 2.267998 0.567429
											}
										}
									}
								}
							}
							JOINT LeftSleeve
							{
								OFFSET 19.684509 -0.200119 0.476146
								CHANNELS 3 Xrotation Yrotation Zrotation
								End Site
								{
									OFFSET -0.031017 25.731133 -0.002868
								}
							}
						}
					}
				}
				JOINT RightShoulder
				{
					OFFSET -4.395900 7.341202 -1.870200
					CHANNELS 3 Xrotation Yrotation Zrotation
					JOINT RightArm
					{
						OFFSET -8.071453 0.936867 -2.181100
						CHANNELS 3 Xrotation Yrotation Zrotation
						JOINT RightForeArm
						{
							OFFSET -31.272011 0.000000 0.000000
							CHANNELS 3 Xrotation Yrotation Zrotation
							JOINT RightHand
							{
								OFFSET -31.771019 0.000000 0.000000
								CHANNELS 3 Xrotation Yrotation Zrotation
								JOINT RightHandThumb1
								{
									OFFSET -2.886520 -2.557808 4.416626
									CHANNELS 3 Xrotation Yrotation Zrotation
									JOINT RightHandThumb2
									{
										OFFSET -2.371056 -1.368927 1.368928
										CHANNELS 3 Xrotation Yrotation Zrotation
										JOINT RightHandThumb3
										{
											OFFSET -2.243362 -1.295204 1.295206
											CHANNELS 3 Xrotation Yrotation Zrotation
											End Site
											{
												OFFSET 0.332642 2.876938 0.020047
											}
										}
									}
								}
								JOINT RightHandIndex1
								{
									OFFSET -8.568993 -0.641953 3.120017
									CHANNELS 3 Xrotation Yrotation Zrotation
									JOINT RightHandIndex2
									{
										OFFSET -3.348518 0.000000 0.000000
										CHANNELS 3 Xrotation Yrotation Zrotation
										JOINT RightHandIndex3
										{
											OFFSET -3.314552 0.000000 0.000000
											CHANNELS 3 Xrotation Yrotation Zrotation
											End Site
											{
												OFFSET 1.032898 3.075478 0.678804
											}
										}
									}
								}
								JOINT RightHandMiddle1
								{
									OFFSET -8.124588 0.000000 0.000000
									CHANNELS 3 Xrotation Yrotation Zrotation
									JOINT RightHandMiddle2
									{
										OFFSET -4.166275 0.000000 0.000000
										CHANNELS 3 Xrotation Yrotation Zrotation
										JOINT RightHandMiddle3
										{
											OFFSET -3.018097 0.000000 0.000000
											CHANNELS 3 Xrotation Yrotation Zrotation
											End Site
											{
												OFFSET 1.032700 2.767937 0.617197
											}
										}
									}
								}
								JOINT RightHandRing1
								{
									OFFSET -8.571747 -0.031349 -2.884061
									CHANNELS 3 Xrotation Yrotation Zrotation
									JOINT RightHandRing2
									{
										OFFSET -3.671204 0.000000 0.000000
										CHANNELS 3 Xrotation Yrotation Zrotation
										JOINT RightHandRing3
										{
											OFFSET -2.728874 0.000000 0.000000
											CHANNELS 3 Xrotation Yrotation Zrotation
											End Site
											{
												OFFSET 0.815804 2.539261 0.577413
											}
										}
									}
								}
								JOINT RightHandPinky1
								{
									OFFSET -7.854561 -0.675247 -5.212970
									CHANNELS 3 Xrotation Yrotation Zrotation
									JOINT RightHandPinky2
									{
										OFFSET -3.068550 0.000000 0.000000
										CHANNELS 3 Xrotation Yrotation Zrotation
										JOINT RightHandPinky3
										{
											OFFSET -2.395981 0.000000 0.000000
											CHANNELS 3 Xrotation Yrotation Zrotation
											End Site
											{
												OFFSET 0.524605 2.267952 0.567413
											}
										}
									}
								}
							}
							JOINT RightSleeve
							{
								OFFSET -19.684753 -0.200165 0.476065
								CHANNELS 3 Xrotation Yrotation Zrotation
								End Site
								{
									OFFSET 0.031342 25.731255 -0.002917
								}
							}
						}
					}
				}
				JOINT Hood
				{
					OFFSET 0.369700 14.447800 -5.317800
					CHANNELS 3 Xrotation Yrotation Zrotation
					JOINT Hood1
					{
						OFFSET 0.001700 -5.553802 -5.895100
						CHANNELS 3 Xrotation Yrotation Zrotation
						JOINT Hood2
						{
							OFFSET -0.000200 -8.380501 0.763600
							CHANNELS 3 Xrotation Yrotation Zrotation
							End Site
							{
								OFFSET 0.000000 8.415215 0.000000
							}
						}
					}
				}
				JOINT Left_Breast
				{
					OFFSET 5.682500 3.120102 3.188800
					CHANNELS 3 Xrotation Yrotation Zrotation
					End Site
					{
						OFFSET 0.000000 10.528564 0.000000
					}
				}
				JOINT Right_Breast
				{
					OFFSET -4.947600 3.120102 3.185900
					CHANNELS 3 Xrotation Yrotation Zrotation
					End Site
					{
						OFFSET 0.000000 10.528564 0.000000
					}
				}
				JOINT Whistle
				{
					OFFSET 0.368200 11.471298 0.095400
					CHANNELS 3 Xrotation Yrotation Zrotation
					JOINT Whistle1
					{
						OFFSET -0.002000 -6.349899 7.479800
						CHANNELS 3 Xrotation Yrotation Zrotation
						JOINT Whistle2
						{
							OFFSET -0.001300 -8.217598 4.717600
							CHANNELS 3 Xrotation Yrotation Zrotation
							End Site
							{
								OFFSET 0.000000 9.475479 0.000000
							}
						}
					}
				}
			}
		}
		JOINT Belly
		{
			OFFSET 0.212400 1.593002 3.163700
			CHANNELS 3 Xrotation Yrotation Zrotation
			End Site
			{
				OFFSET 0.000000 7.496635 0.000000
			}
		}
	}
	JOINT FitGrandmaFacialAnim_Joint
	{
		OFFSET 1.150000 -86.211197 -1.220100
		CHANNELS 3 Xrotation Yrotation Zrotation
		End Site
		{
			OFFSET 0.000000 31.666618 0.000000
		}
	}
}
MOTION
Frames: 4
Frame Time: 0.016667
53.207825 70.254456 204.073608 1.070116 27.844036 -13.835463 -0.000000 0.000000 0.000000 -36.323465 13.849080 -0.151697 110.042551 10.595084 0.523602 -1.389835 -0.527990 18.774996 0.000001 -0.000000 -0.000000 0.000002 0.000001 0.000000 -0.000003 -0.000000 0.000000 -38.073814 5.220735 -4.350328 61.499201 10.320835 0.392747 -28.081124 -0.967833 13.870408 -0.000000 0.000003 0.000000 -0.000001 0.000002 -0.000000 0.000001 0.000002 -0.000000 4.346840 -2.612283 -2.595851 3.685480 -1.693006 1.426706 3.657015 -1.820087 1.396205 0.856920 2.472372 0.809333 -13.888075 30.928599 5.475025 0.000000 0.000001 -0.000000 0.000000 0.000001 -0.000000 0.000000 0.000001 -0.000000 0.000000 0.000001 -0.000000 0.000000 0.000001 -0.000000 0.000000 0.000001 -0.000000 0.000000 0.000001 -0.000000 0.000000 0.000001 -0.000000 0.000000 0.000001 -0.000000 0.000000 0.000001 -0.000000 0.000000 0.000001 -0.000000 0.000000 0.000001 -0.000000 0.000000 0.000001 -0.000000 0.000000 0.000001 -0.000000 0.000000 0.000001 -0.000000 0.000000 0.000001 -0.000000 0.000000 0.000001 -0.000000 0.000000 0.000001 -0.000000 0.000000 0.000001 -0.000000 0.537709 -0.925233 -8.721433 28.704782 -17.140805 -55.244366 0.000008 -63.812026 0.000023 -14.162609 -33.316263 32.504051 5.358057 -0.141371 9.666155 3.545757 27.155813 3.560560 -0.000003 -0.000003 0.000002 -1.578829 0.825921 -19.703491 0.405079 2.870985 -21.069214 0.000000 0.000000 0.000001 0.409501 7.162237 -25.647943 0.416491 2.993233 -22.185347 -0.000001 0.000001 -0.000001 2.386873 10.570852 -32.882351 0.471656 2.115279 -18.422009 0.000001 -0.000000 0.000000 2.967919 13.388261 -36.938899 0.139967 1.667045 -18.441905 -0.000002 -0.000002 -0.000001 0.000000 -0.000002 -0.000001 0.815846 -4.239264 12.335988 15.586521 20.224397 47.923315 -0.003758 92.611300 0.003613 -14.992151 28.643986 -6.764697 0.789357 -8.211545 -4.825402 0.020103 -13.361255 -9.371046 0.000001 0.000001 0.000001 -1.070479 -2.247355 17.231261 0.405441 -2.871960 21.079311 -0.000003 0.000000 0.000003 0.438999 -7.256198 26.595138 0.417437 -2.995673 22.211562 -0.000001 0.000001 -0.000003 2.698239 -11.184235 32.166093 0.472426 -2.116945 18.440363 -0.000001 0.000001 0.000002 4.305394 -16.260321 34.920975 0.139790 -1.666338 18.434710 -0.000002 0.000001 0.000001 -0.000003 0.000001 -0.000000 0.000000 -0.000000 0.000001 0.000000 -0.000000 0.000001 0.000000 -0.000000 0.000001 0.000000 -0.000000 0.000001 0.000000 -0.000000 0.000001 0.000000 -0.000000 0.000000 -0.000000 -0.000000 0.000000 -0.000000 -0.000000 0.000000 0.000000 -0.000002 0.000001 -0.000000 0.000000 0.000000 
56.019676 70.066345 208.771332 0.513406 28.371311 -14.329897 0.000000 -0.000001 0.000000 -48.667990 13.599682 2.245041 111.431408 10.983992 0.498963 -1.410177 -0.824083 18.379149 0.000003 0.000000 -0.000001 0.000001 0.000001 -0.000002 -0.000001 -0.000002 0.000001 -32.562510 4.963286 -3.627650 63.551529 10.235769 0.488688 -34.397024 -1.572559 11.623101 0.000000 -0.000002 -0.000000 0.000002 -0.000004 0.000002 0.000002 0.000002 0.000001 5.195602 -0.751667 -2.123890 4.311018 -0.536959 1.522725 4.300140 -0.688783 1.521627 0.463916 2.096609 0.947759 -14.996447 28.403036 5.305054 -0.000000 0.000000 0.000000 -0.000000 0.000000 0.000000 -0.000000 0.000000 0.000000 -0.000000 0.000000 0.000000 -0.000000 0.000000 0.000000 -0.000000 0.000000 0.000000 -0.000000 0.000000 0.000000 -0.000000 0.000000 0.000000 -0.000000 0.000000 0.000000 -0.000000 0.000000 0.000000 -0.000000 0.000000 0.000000 -0.000000 0.000000 0.000000 -0.000000 0.000000 0.000000 -0.000000 0.000000 0.000000 -0.000000 0.000000 0.000000 -0.000000 0.000000 0.000000 -0.000000 0.000000 0.000000 -0.000000 0.000000 0.000000 -0.000000 0.000000 0.000000 0.523715 -0.270282 -7.835306 34.348557 -17.343310 -56.852131 -0.000016 -59.199326 -0.000014 -16.618882 -33.493062 29.916789 5.358056 -0.141375 9.666160 3.545755 27.155809 3.560564 -0.000001 -0.000001 -0.000001 -1.578826 0.825920 -19.703486 0.405081 2.870988 -21.069216 0.000001 -0.000003 0.000002 0.409503 7.162235 -25.647941 0.416493 2.993232 -22.185346 -0.000002 0.000000 0.000001 2.386871 10.570849 -32.882351 0.471657 2.115282 -18.422009 0.000002 -0.000001 0.000002 2.967918 13.388259 -36.938899 0.139969 1.667044 -18.441905 -0.000003 0.000005 -0.000001 -0.000000 -0.000002 -0.000001 0.730128 -2.285044 12.250236 5.243290 22.564737 51.239444 -0.002453 93.514750 0.002493 -16.491847 27.969621 -4.873434 0.789360 -8.211542 -4.825403 0.020101 -13.361254 -9.371046 0.000001 -0.000001 -0.000002 -1.070483 -2.247356 17.231256 0.405444 -2.871959 21.079311 -0.000002 -0.000000 0.000001 0.438996 -7.256198 26.595143 0.417437 -2.995670 22.211557 -0.000001 0.000001 -0.000003 2.698239 -11.184238 32.166089 0.472425 -2.116943 18.440360 -0.000002 -0.000001 -0.000001 4.305391 -16.260326 34.920975 0.139791 -1.666336 18.434710 0.000001 0.000001 0.000000 -0.000003 0.000000 0.000003 0.000001 -0.000002 0.000000 0.000001 -0.000002 0.000000 0.000001 -0.000002 0.000000 0.000001 -0.000002 0.000000 0.000001 -0.000002 0.000000 0.000001 -0.000002 0.000001 0.000001 -0.000000 -0.000000 0.000001 -0.000000 -0.000000 0.000000 -0.000002 0.000001 0.000000 -0.000001 0.000000 
59.242905 69.825058 213.535873 0.028462 28.580641 -14.854610 0.000000 0.000000 0.000000 -59.707813 12.818739 3.619135 109.484995 11.720423 0.518242 -0.457702 -0.627987 17.998267 -0.000005 -0.000001 0.000002 -0.000002 -0.000001 0.000003 0.000001 -0.000002 -0.000003 -26.103347 4.379378 -3.194262 64.067577 9.623504 0.610521 -40.462068 -1.327863 9.008311 -0.000000 -0.000003 -0.000000 -0.000003 -0.000002 0.000001 0.000001 -0.000003 0.000001 5.623139 0.911211 -1.250668 4.651099 0.654912 1.633859 4.657232 0.491973 1.673784 0.396495 1.761072 0.948534 -15.762634 26.254651 5.119161 -0.000000 0.000000 -0.000000 -0.000000 0.000000 -0.000000 -0.000000 0.000000 -0.000000 -0.000000 0.000000 -0.000000 -0.000000 0.000000 -0.000000 -0.000000 0.000000 -0.000000 -0.000000 0.000000 -0.000000 -0.000000 0.000000 -0.000000 -0.000000 0.000000 -0.000000 -0.000000 0.000000 -0.000000 -0.000000 0.000000 -0.000000 -0.000000 0.000000 -0.000000 -0.000000 0.000000 -0.000000 -0.000000 0.000000 -0.000000 -0.000000 0.000000 -0.000000 -0.000000 0.000000 -0.000000 -0.000000 0.000000 -0.000000 -0.000000 0.000000 -0.000000 -0.000000 0.000000 -0.000000 0.472295 0.823564 -6.563502 41.287049 -17.715632 -58.148720 0.000007 -58.979824 0.000022 -18.820702 -33.533456 26.792945 5.358055 -0.141374 9.666158 3.545758 27.155809 3.560571 -0.000003 0.000003 -0.000004 -1.578829 0.825919 -19.703487 0.405081 2.870977 -21.069219 0.000003 -0.000001 -0.000001 0.409503 7.162234 -25.647944 0.416494 2.993232 -22.185342 -0.000001 0.000001 0.000001 2.386874 10.570850 -32.882351 0.471655 2.115276 -18.422014 -0.000001 0.000002 0.000001 2.967918 13.388259 -36.938899 0.139969 1.667040 -18.441907 -0.000003 -0.000003 0.000001 0.000001 -0.000001 0.000001 0.625966 0.265414 11.021706 -6.297821 23.802318 54.826902 -0.000432 96.646992 0.000435 -19.103255 24.520601 -3.410995 0.789355 -8.211546 -4.825403 0.020101 -13.361250 -9.371043 0.000001 0.000001 0.000006 -1.070483 -2.247357 17.231256 0.405441 -2.871960 21.079311 -0.000001 0.000000 -0.000000 0.439001 -7.256194 26.595138 0.417436 -2.995673 22.211557 -0.000002 0.000003 -0.000003 2.698240 -11.184238 32.166089 0.472424 -2.116945 18.440367 -0.000000 0.000000 0.000003 4.305390 -16.260327 34.920975 0.139788 -1.666338 18.434715 -0.000003 -0.000000 0.000001 -0.000004 -0.000002 -0.000003 0.000001 0.000000 -0.000000 0.000001 0.000000 -0.000000 0.000001 0.000000 -0.000000 0.000001 0.000000 -0.000000 0.000001 0.000000 -0.000000 0.000001 0.000000 0.000001 0.000001 -0.000001 -0.000001 0.000001 -0.000001 -0.000001 0.000001 0.000001 -0.000001 0.000000 0.000000 0.000000 
59.242905 69.825058 213.535873 0.028462 28.580641 -14.854610 0.000000 0.000000 0.000000 -59.707813 12.818739 3.619135 109.484995 11.720423 0.518242 -0.457702 -0.627987 17.998267 -0.000005 -0.000001 0.000002 -0.000002 -0.000001 0.000003 0.000001 -0.000002 -0.000003 -26.103347 4.379378 -3.194262 64.067577 9.623504 0.610521 -40.462068 -1.327863 9.008311 -0.000000 -0.000003 -0.000000 -0.000003 -0.000002 0.000001 0.000001 -0.000003 0.000001 5.623139 0.911211 -1.250668 4.651099 0.654912 1.633859 4.657232 0.491973 1.673784 0.396495 1.761072 0.948534 -15.762634 26.254651 5.119161 -0.000000 0.000000 -0.000000 -0.000000 0.000000 -0.000000 -0.000000 0.000000 -0.000000 -0.000000 0.000000 -0.000000 -0.000000 0.000000 -0.000000 -0.000000 0.000000 -0.000000 -0.000000 0.000000 -0.000000 -0.000000 0.000000 -0.000000 -0.000000 0.000000 -0.000000 -0.000000 0.000000 -0.000000 -0.000000 0.000000 -0.000000 -0.000000 0.000000 -0.000000 -0.000000 0.000000 -0.000000 -0.000000 0.000000 -0.000000 -0.000000 0.000000 -0.000000 -0.000000 0.000000 -0.000000 -0.000000 0.000000 -0.000000 -0.000000 0.000000 -0.000000 -0.000000 0.000000 -0.000000 0.472295 0.823564 -6.563502 41.287049 -17.715632 -58.148720 0.000007 -58.979824 0.000022 -18.820702 -33.533456 26.792945 5.358055 -0.141374 9.666158 3.545758 27.155809 3.560571 -0.000003 0.000003 -0.000004 -1.578829 0.825919 -19.703487 0.405081 2.870977 -21.069219 0.000003 -0.000001 -0.000001 0.409503 7.162234 -25.647944 0.416494 2.993232 -22.185342 -0.000001 0.000001 0.000001 2.386874 10.570850 -32.882351 0.471655 2.115276 -18.422014 -0.000001 0.000002 0.000001 2.967918 13.388259 -36.938899 0.139969 1.667040 -18.441907 -0.000003 -0.000003 0.000001 0.000001 -0.000001 0.000001 0.625966 0.265414 11.021706 -6.297821 23.802318 54.826902 -0.000432 96.646992 0.000435 -19.103255 24.520601 -3.410995 0.789355 -8.211546 -4.825403 0.020101 -13.361250 -9.371043 0.000001 0.000001 0.000006 -1.070483 -2.247357 17.231256 0.405441 -2.871960 21.079311 -0.000001 0.000000 -0.000000 0.439001 -7.256194 26.595138 0.417436 -2.995673 22.211557 -0.000002 0.000003 -0.000003 2.698240 -11.184238 32.166089 0.472424 -2.116945 18.440367 -0.000000 0.000000 0.000003 4.305390 -16.260327 34.920975 0.139788 -1.666338 18.434715 -0.000003 -0.000000 0.000001 -0.000004 -0.000002 -0.000003 0.000001 0.000000 -0.000000 0.000001 0.000000 -0.000000 0.000001 0.000000 -0.000000 0.000001 0.000000 -0.000000 0.000001 0.000000 -0.000000 0.000001 0.000000 0.000001 0.000001 -0.000001 -0.000001 0.000001 -0.000001 -0.000001 0.000001 0.000001 -0.000001 0.000000 0.000000 0.000000 
